# MagicaVoxel @ Ephtracy

# group
o 

# material
mtllib ax.mtl
usemtl palette

# normals
vn -1 0 0
vn 1 0 0
vn 0 0 1
vn 0 0 -1
vn 0 -1 0
vn 0 1 0

# texcoords
vt 0.943359 0.5
vt 0.970703 0.5

# verts
v -0.3 2.1 0
v -0.3 2.1 -0.1
v -0.3 2.8 0
v -0.3 2.8 -0.1
v 0.1 1.3 0
v 0.1 1.3 -0.1
v 0.1 2.3 0
v 0.1 2.3 -0.1
v 0.1 2.6 0
v 0.1 2.6 -0.1
v 0.1 2.7 0
v 0.1 2.7 -0.1
v -0.1 2.1 0
v -0.1 2.1 -0.1
v -0.1 2.2 0
v -0.1 2.2 -0.1
v -0.1 2.7 0
v -0.1 2.7 -0.1
v -0.1 2.8 0
v -0.1 2.8 -0.1
v 0 2.2 0
v 0 2.2 -0.1
v 0 2.3 0
v 0 2.3 -0.1
v 0 2.6 0
v 0 2.6 -0.1
v 0 2.7 0
v 0 2.7 -0.1
v 0.3 1.3 0
v 0.3 1.3 -0.1
v 0.3 2.3 0
v 0.3 2.3 -0.1
v 0.3 2.6 0
v 0.3 2.6 -0.1
v 0.3 2.7 0
v 0.3 2.7 -0.1
v 0.4 2.3 0
v 0.4 2.3 -0.1
v 0.4 2.6 0
v 0.4 2.6 -0.1
v -0.3 2.1 0
v -0.3 2.8 0
v -0.1 2.1 0
v -0.1 2.2 0
v -0.1 2.7 0
v -0.1 2.8 0
v 0 2.2 0
v 0 2.3 0
v 0 2.6 0
v 0 2.7 0
v 0.1 1.3 0
v 0.1 2.3 0
v 0.1 2.6 0
v 0.1 2.7 0
v 0.3 1.3 0
v 0.3 2.3 0
v 0.3 2.6 0
v 0.3 2.7 0
v 0.4 2.3 0
v 0.4 2.6 0
v -0.3 2.1 -0.1
v -0.3 2.8 -0.1
v -0.1 2.1 -0.1
v -0.1 2.2 -0.1
v -0.1 2.7 -0.1
v -0.1 2.8 -0.1
v 0 2.2 -0.1
v 0 2.3 -0.1
v 0 2.6 -0.1
v 0 2.7 -0.1
v 0.1 1.3 -0.1
v 0.1 2.3 -0.1
v 0.1 2.6 -0.1
v 0.1 2.7 -0.1
v 0.3 1.3 -0.1
v 0.3 2.3 -0.1
v 0.3 2.6 -0.1
v 0.3 2.7 -0.1
v 0.4 2.3 -0.1
v 0.4 2.6 -0.1
v 0.1 1.3 0
v 0.3 1.3 0
v 0.1 1.3 -0.1
v 0.3 1.3 -0.1
v -0.3 2.1 0
v -0.1 2.1 0
v -0.3 2.1 -0.1
v -0.1 2.1 -0.1
v -0.1 2.2 0
v 0 2.2 0
v -0.1 2.2 -0.1
v 0 2.2 -0.1
v 0 2.3 0
v 0.1 2.3 0
v 0.3 2.3 0
v 0.4 2.3 0
v 0 2.3 -0.1
v 0.1 2.3 -0.1
v 0.3 2.3 -0.1
v 0.4 2.3 -0.1
v 0 2.6 0
v 0.1 2.6 0
v 0.3 2.6 0
v 0.4 2.6 0
v 0 2.6 -0.1
v 0.1 2.6 -0.1
v 0.3 2.6 -0.1
v 0.4 2.6 -0.1
v -0.1 2.7 0
v 0 2.7 0
v 0.1 2.7 0
v 0.3 2.7 0
v -0.1 2.7 -0.1
v 0 2.7 -0.1
v 0.1 2.7 -0.1
v 0.3 2.7 -0.1
v -0.3 2.8 0
v -0.1 2.8 0
v -0.3 2.8 -0.1
v -0.1 2.8 -0.1

# faces
f 3/1/1 2/1/1 1/1/1
f 4/1/1 2/1/1 3/1/1
f 7/2/1 6/2/1 5/2/1
f 8/2/1 6/2/1 7/2/1
f 11/2/1 10/2/1 9/2/1
f 12/2/1 10/2/1 11/2/1
f 13/1/2 14/1/2 15/1/2
f 15/1/2 14/1/2 16/1/2
f 17/1/2 18/1/2 19/1/2
f 19/1/2 18/1/2 20/1/2
f 21/1/2 22/1/2 23/1/2
f 23/1/2 22/1/2 24/1/2
f 25/1/2 26/1/2 27/1/2
f 27/1/2 26/1/2 28/1/2
f 29/2/2 30/2/2 31/2/2
f 31/2/2 30/2/2 32/2/2
f 33/2/2 34/2/2 35/2/2
f 35/2/2 34/2/2 36/2/2
f 37/1/2 38/1/2 39/1/2
f 39/1/2 38/1/2 40/1/2
f 43/1/3 42/1/3 41/1/3
f 44/1/3 42/1/3 43/1/3
f 45/1/3 42/1/3 44/1/3
f 46/1/3 42/1/3 45/1/3
f 47/1/3 45/1/3 44/1/3
f 48/1/3 45/1/3 47/1/3
f 49/1/3 45/1/3 48/1/3
f 50/1/3 45/1/3 49/1/3
f 52/1/3 49/1/3 48/1/3
f 53/1/3 49/1/3 52/1/3
f 55/2/3 52/2/3 51/2/3
f 55/2/3 54/2/3 53/2/3
f 55/2/3 53/2/3 52/2/3
f 56/2/3 54/2/3 55/2/3
f 57/2/3 54/2/3 56/2/3
f 58/2/3 54/2/3 57/2/3
f 59/1/3 57/1/3 56/1/3
f 60/1/3 57/1/3 59/1/3
f 61/1/4 62/1/4 63/1/4
f 63/1/4 62/1/4 64/1/4
f 64/1/4 62/1/4 65/1/4
f 65/1/4 62/1/4 66/1/4
f 64/1/4 65/1/4 67/1/4
f 67/1/4 65/1/4 68/1/4
f 68/1/4 65/1/4 69/1/4
f 69/1/4 65/1/4 70/1/4
f 68/1/4 69/1/4 72/1/4
f 72/1/4 69/1/4 73/1/4
f 71/2/4 72/2/4 75/2/4
f 73/2/4 74/2/4 75/2/4
f 72/2/4 73/2/4 75/2/4
f 75/2/4 74/2/4 76/2/4
f 76/2/4 74/2/4 77/2/4
f 77/2/4 74/2/4 78/2/4
f 76/1/4 77/1/4 79/1/4
f 79/1/4 77/1/4 80/1/4
f 83/2/5 82/2/5 81/2/5
f 84/2/5 82/2/5 83/2/5
f 87/1/5 86/1/5 85/1/5
f 88/1/5 86/1/5 87/1/5
f 91/1/5 90/1/5 89/1/5
f 92/1/5 90/1/5 91/1/5
f 97/1/5 94/1/5 93/1/5
f 98/1/5 94/1/5 97/1/5
f 99/1/5 96/1/5 95/1/5
f 100/1/5 96/1/5 99/1/5
f 101/1/6 102/1/6 105/1/6
f 105/1/6 102/1/6 106/1/6
f 103/1/6 104/1/6 107/1/6
f 107/1/6 104/1/6 108/1/6
f 109/1/6 110/1/6 113/1/6
f 113/1/6 110/1/6 114/1/6
f 111/2/6 112/2/6 115/2/6
f 115/2/6 112/2/6 116/2/6
f 117/1/6 118/1/6 119/1/6
f 119/1/6 118/1/6 120/1/6
