# MagicaVoxel @ Ephtracy

# group
o 

# material
mtllib bird.mtl
usemtl palette

# normals
vn -1 0 0
vn 1 0 0
vn 0 0 1
vn 0 0 -1
vn 0 -1 0
vn 0 1 0

# texcoords
vt 0.751953 0.5
vt 0.783203 0.5
vt 0.814453 0.5
vt 0.943359 0.5
vt 0.962891 0.5
vt 0.978516 0.5

# verts
v -0.4 1.5 0.1
v -0.4 1.5 -0.2
v -0.4 1.8 -0.2
v -0.4 1.8 -0.3
v -0.4 1.8 -0.5
v -0.4 2.1 0.1
v -0.4 2.1 -0.2
v -0.4 2.1 -0.3
v -0.4 2.1 -0.5
v -0.4 2.4 0.2
v -0.4 2.4 -0.1
v -0.4 2.5 0.1
v -0.4 2.5 5.96046e-008
v -0.4 2.6 0.1
v -0.4 2.6 5.96046e-008
v -0.4 2.7 0.2
v -0.4 2.7 -0.1
v -0.3 1.3 5.96046e-008
v -0.3 1.3 -0.1
v -0.3 1.4 5.96046e-008
v -0.3 1.4 -0.1
v -0.3 1.5 -0.2
v -0.3 1.5 -0.6
v -0.3 1.6 0.3
v -0.3 1.6 0.1
v -0.3 1.8 -0.2
v -0.3 1.8 -0.3
v -0.3 1.8 -0.5
v -0.3 1.8 -0.6
v -0.3 2.1 0.1
v -0.3 2.1 -0.2
v -0.3 2.1 -0.3
v -0.3 2.1 -0.4
v -0.3 2.2 0.3
v -0.3 2.2 -0.4
v -0.3 2.4 0.2
v -0.3 2.4 -0.1
v -0.3 2.7 0.2
v -0.3 2.7 -0.1
v -0.3 2.8 0.3
v -0.3 2.8 -0.4
v -0.2 1.3 0.2
v -0.2 1.3 5.96046e-008
v -0.2 1.3 -0.1
v -0.2 1.3 -0.2
v -0.2 1.4 0.2
v -0.2 1.4 5.96046e-008
v -0.2 1.4 -0.1
v -0.2 1.4 -0.2
v -0.2 1.5 5.96046e-008
v -0.2 1.5 -0.1
v -0.1 2.3 0.6
v -0.1 2.3 0.3
v -0.1 2.5 0.6
v -0.1 2.5 0.4
v -0.1 2.5 0.3
v -0.1 2.6 0.4
v -0.1 2.6 0.3
v 0.1 2.4 0.4
v 0.1 2.4 0.3
v 0.1 2.5 0.4
v 0.1 2.5 0.3
v 0.2 1.3 0.2
v 0.2 1.3 -0.2
v 0.2 1.4 0.2
v 0.2 1.4 5.96046e-008
v 0.2 1.4 -0.1
v 0.2 1.4 -0.2
v 0.2 1.5 5.96046e-008
v 0.2 1.5 -0.1
v -0.1 1.3 0.2
v -0.1 1.3 -0.2
v -0.1 1.4 0.2
v -0.1 1.4 5.96046e-008
v -0.1 1.4 -0.1
v -0.1 1.4 -0.2
v -0.1 1.5 5.96046e-008
v -0.1 1.5 -0.1
v 0 2.4 0.4
v 0 2.4 0.3
v 0 2.5 0.4
v 0 2.5 0.3
v 0.2 2.3 0.6
v 0.2 2.3 0.3
v 0.2 2.5 0.6
v 0.2 2.5 0.4
v 0.2 2.5 0.3
v 0.2 2.6 0.4
v 0.2 2.6 0.3
v 0.3 1.3 0.2
v 0.3 1.3 5.96046e-008
v 0.3 1.3 -0.1
v 0.3 1.3 -0.2
v 0.3 1.4 0.2
v 0.3 1.4 5.96046e-008
v 0.3 1.4 -0.1
v 0.3 1.4 -0.2
v 0.3 1.5 5.96046e-008
v 0.3 1.5 -0.1
v 0.4 1.3 5.96046e-008
v 0.4 1.3 -0.1
v 0.4 1.4 5.96046e-008
v 0.4 1.4 -0.1
v 0.4 1.5 -0.2
v 0.4 1.5 -0.6
v 0.4 1.6 0.3
v 0.4 1.6 0.1
v 0.4 1.8 -0.2
v 0.4 1.8 -0.3
v 0.4 1.8 -0.5
v 0.4 1.8 -0.6
v 0.4 2.1 0.1
v 0.4 2.1 -0.2
v 0.4 2.1 -0.3
v 0.4 2.1 -0.4
v 0.4 2.2 0.3
v 0.4 2.2 -0.4
v 0.4 2.4 0.2
v 0.4 2.4 -0.1
v 0.4 2.7 0.2
v 0.4 2.7 -0.1
v 0.4 2.8 0.3
v 0.4 2.8 -0.4
v 0.5 1.5 0.1
v 0.5 1.5 -0.2
v 0.5 1.8 -0.2
v 0.5 1.8 -0.3
v 0.5 1.8 -0.5
v 0.5 2.1 0.1
v 0.5 2.1 -0.2
v 0.5 2.1 -0.3
v 0.5 2.1 -0.5
v 0.5 2.4 0.2
v 0.5 2.4 -0.1
v 0.5 2.5 0.1
v 0.5 2.5 5.96046e-008
v 0.5 2.6 0.1
v 0.5 2.6 5.96046e-008
v 0.5 2.7 0.2
v 0.5 2.7 -0.1
v -0.1 2.3 0.6
v -0.1 2.5 0.6
v 0.2 2.3 0.6
v 0.2 2.5 0.6
v -0.1 2.5 0.4
v -0.1 2.6 0.4
v 0.2 2.5 0.4
v 0.2 2.6 0.4
v -0.3 1.6 0.3
v -0.3 2.2 0.3
v -0.3 2.8 0.3
v -0.1 2.3 0.3
v -0.1 2.5 0.3
v -0.1 2.6 0.3
v 0 2.4 0.3
v 0 2.5 0.3
v 0.1 2.4 0.3
v 0.1 2.5 0.3
v 0.2 2.3 0.3
v 0.2 2.5 0.3
v 0.2 2.6 0.3
v 0.4 1.6 0.3
v 0.4 2.2 0.3
v 0.4 2.8 0.3
v -0.4 2.4 0.2
v -0.4 2.7 0.2
v -0.3 2.4 0.2
v -0.3 2.7 0.2
v -0.2 1.3 0.2
v -0.2 1.4 0.2
v -0.1 1.3 0.2
v -0.1 1.4 0.2
v 0.2 1.3 0.2
v 0.2 1.4 0.2
v 0.3 1.3 0.2
v 0.3 1.4 0.2
v 0.4 2.4 0.2
v 0.4 2.7 0.2
v 0.5 2.4 0.2
v 0.5 2.7 0.2
v -0.4 1.5 0.1
v -0.4 2.1 0.1
v -0.3 1.6 0.1
v -0.3 2.1 0.1
v 0.4 1.6 0.1
v 0.4 2.1 0.1
v 0.5 1.5 0.1
v 0.5 2.1 0.1
v -0.3 1.3 5.96046e-008
v -0.3 1.4 5.96046e-008
v -0.2 1.3 5.96046e-008
v -0.2 1.4 5.96046e-008
v -0.2 1.5 5.96046e-008
v -0.1 1.4 5.96046e-008
v -0.1 1.5 5.96046e-008
v 0.2 1.4 5.96046e-008
v 0.2 1.5 5.96046e-008
v 0.3 1.3 5.96046e-008
v 0.3 1.4 5.96046e-008
v 0.3 1.5 5.96046e-008
v 0.4 1.3 5.96046e-008
v 0.4 1.4 5.96046e-008
v 0 2.4 0.4
v 0 2.5 0.4
v 0.1 2.4 0.4
v 0.1 2.5 0.4
v -0.4 2.4 -0.1
v -0.4 2.7 -0.1
v -0.3 1.3 -0.1
v -0.3 1.4 -0.1
v -0.3 2.4 -0.1
v -0.3 2.7 -0.1
v -0.2 1.3 -0.1
v -0.2 1.4 -0.1
v -0.2 1.5 -0.1
v -0.1 1.4 -0.1
v -0.1 1.5 -0.1
v 0.2 1.4 -0.1
v 0.2 1.5 -0.1
v 0.3 1.3 -0.1
v 0.3 1.4 -0.1
v 0.3 1.5 -0.1
v 0.4 1.3 -0.1
v 0.4 1.4 -0.1
v 0.4 2.4 -0.1
v 0.4 2.7 -0.1
v 0.5 2.4 -0.1
v 0.5 2.7 -0.1
v -0.4 1.5 -0.2
v -0.4 1.8 -0.2
v -0.3 1.5 -0.2
v -0.3 1.8 -0.2
v -0.2 1.3 -0.2
v -0.2 1.4 -0.2
v -0.1 1.3 -0.2
v -0.1 1.4 -0.2
v 0.2 1.3 -0.2
v 0.2 1.4 -0.2
v 0.3 1.3 -0.2
v 0.3 1.4 -0.2
v 0.4 1.5 -0.2
v 0.4 1.8 -0.2
v 0.5 1.5 -0.2
v 0.5 1.8 -0.2
v -0.3 2.1 -0.4
v -0.3 2.2 -0.4
v -0.3 2.8 -0.4
v 0.4 2.1 -0.4
v 0.4 2.2 -0.4
v 0.4 2.8 -0.4
v -0.4 1.8 -0.5
v -0.4 2.1 -0.5
v -0.3 1.8 -0.5
v 0.4 1.8 -0.5
v 0.5 1.8 -0.5
v 0.5 2.1 -0.5
v -0.3 1.5 -0.6
v -0.3 1.8 -0.6
v 0.4 1.5 -0.6
v 0.4 1.8 -0.6
v -0.2 1.3 0.2
v -0.1 1.3 0.2
v 0.2 1.3 0.2
v 0.3 1.3 0.2
v -0.3 1.3 5.96046e-008
v -0.2 1.3 5.96046e-008
v 0.3 1.3 5.96046e-008
v 0.4 1.3 5.96046e-008
v -0.3 1.3 -0.1
v -0.2 1.3 -0.1
v 0.3 1.3 -0.1
v 0.4 1.3 -0.1
v -0.2 1.3 -0.2
v -0.1 1.3 -0.2
v 0.2 1.3 -0.2
v 0.3 1.3 -0.2
v -0.4 1.5 0.1
v 0.5 1.5 0.1
v -0.2 1.5 5.96046e-008
v -0.1 1.5 5.96046e-008
v 0.2 1.5 5.96046e-008
v 0.3 1.5 5.96046e-008
v -0.2 1.5 -0.1
v -0.1 1.5 -0.1
v 0.2 1.5 -0.1
v 0.3 1.5 -0.1
v -0.4 1.5 -0.2
v -0.3 1.5 -0.2
v 0.4 1.5 -0.2
v 0.5 1.5 -0.2
v -0.3 1.5 -0.6
v 0.4 1.5 -0.6
v -0.3 1.6 0.3
v 0.4 1.6 0.3
v -0.3 1.6 0.1
v 0.4 1.6 0.1
v -0.4 1.8 -0.2
v -0.3 1.8 -0.2
v 0.4 1.8 -0.2
v 0.5 1.8 -0.2
v -0.4 1.8 -0.3
v -0.3 1.8 -0.3
v 0.4 1.8 -0.3
v 0.5 1.8 -0.3
v -0.4 1.8 -0.5
v -0.3 1.8 -0.5
v 0.4 1.8 -0.5
v 0.5 1.8 -0.5
v -0.1 2.3 0.6
v 0.2 2.3 0.6
v -0.1 2.3 0.3
v 0.2 2.3 0.3
v -0.4 2.4 0.2
v -0.3 2.4 0.2
v 0.4 2.4 0.2
v 0.5 2.4 0.2
v -0.4 2.4 -0.1
v -0.3 2.4 -0.1
v 0.4 2.4 -0.1
v 0.5 2.4 -0.1
v 0 2.5 0.4
v 0.1 2.5 0.4
v 0 2.5 0.3
v 0.1 2.5 0.3
v -0.2 1.4 0.2
v -0.1 1.4 0.2
v 0.2 1.4 0.2
v 0.3 1.4 0.2
v -0.3 1.4 5.96046e-008
v -0.2 1.4 5.96046e-008
v -0.1 1.4 5.96046e-008
v 0.2 1.4 5.96046e-008
v 0.3 1.4 5.96046e-008
v 0.4 1.4 5.96046e-008
v -0.3 1.4 -0.1
v -0.2 1.4 -0.1
v -0.1 1.4 -0.1
v 0.2 1.4 -0.1
v 0.3 1.4 -0.1
v 0.4 1.4 -0.1
v -0.2 1.4 -0.2
v -0.1 1.4 -0.2
v 0.2 1.4 -0.2
v 0.3 1.4 -0.2
v -0.3 1.8 -0.5
v 0.4 1.8 -0.5
v -0.3 1.8 -0.6
v 0.4 1.8 -0.6
v -0.4 2.1 0.1
v -0.3 2.1 0.1
v 0.4 2.1 0.1
v 0.5 2.1 0.1
v -0.4 2.1 -0.2
v -0.3 2.1 -0.2
v 0.4 2.1 -0.2
v 0.5 2.1 -0.2
v -0.4 2.1 -0.3
v -0.3 2.1 -0.3
v 0.4 2.1 -0.3
v 0.5 2.1 -0.3
v -0.3 2.1 -0.4
v 0.4 2.1 -0.4
v -0.4 2.1 -0.5
v 0.5 2.1 -0.5
v 0 2.4 0.4
v 0.1 2.4 0.4
v 0 2.4 0.3
v 0.1 2.4 0.3
v -0.1 2.5 0.6
v 0.2 2.5 0.6
v -0.1 2.5 0.4
v 0.2 2.5 0.4
v -0.1 2.6 0.4
v 0.2 2.6 0.4
v -0.1 2.6 0.3
v 0.2 2.6 0.3
v -0.4 2.7 0.2
v -0.3 2.7 0.2
v 0.4 2.7 0.2
v 0.5 2.7 0.2
v -0.4 2.7 -0.1
v -0.3 2.7 -0.1
v 0.4 2.7 -0.1
v 0.5 2.7 -0.1
v -0.3 2.8 0.3
v 0.4 2.8 0.3
v -0.3 2.8 -0.4
v 0.4 2.8 -0.4

# faces
f 3/2/1 2/2/1 1/2/1
f 6/2/1 3/2/1 1/2/1
f 7/4/1 4/4/1 3/4/1
f 7/2/1 3/2/1 6/2/1
f 8/5/1 5/5/1 4/5/1
f 8/4/1 4/4/1 7/4/1
f 9/5/1 5/5/1 8/5/1
f 12/3/1 11/3/1 10/3/1
f 13/3/1 11/3/1 12/3/1
f 14/3/1 12/3/1 10/3/1
f 14/6/1 13/6/1 12/6/1
f 15/3/1 11/3/1 13/3/1
f 15/6/1 13/6/1 14/6/1
f 16/3/1 14/3/1 10/3/1
f 16/3/1 15/3/1 14/3/1
f 17/3/1 11/3/1 15/3/1
f 17/3/1 15/3/1 16/3/1
f 20/1/1 19/1/1 18/1/1
f 21/1/1 19/1/1 20/1/1
f 26/2/1 23/2/1 22/2/1
f 27/2/1 23/2/1 26/2/1
f 28/2/1 23/2/1 27/2/1
f 29/2/1 23/2/1 28/2/1
f 30/2/1 25/2/1 24/2/1
f 34/2/1 30/2/1 24/2/1
f 34/2/1 33/2/1 32/2/1
f 34/2/1 32/2/1 31/2/1
f 34/2/1 31/2/1 30/2/1
f 35/2/1 33/2/1 34/2/1
f 36/4/1 35/4/1 34/4/1
f 37/4/1 35/4/1 36/4/1
f 38/4/1 36/4/1 34/4/1
f 39/4/1 35/4/1 37/4/1
f 40/4/1 38/4/1 34/4/1
f 40/4/1 39/4/1 38/4/1
f 41/4/1 35/4/1 39/4/1
f 41/4/1 39/4/1 40/4/1
f 46/1/1 43/1/1 42/1/1
f 47/1/1 43/1/1 46/1/1
f 48/1/1 45/1/1 44/1/1
f 49/1/1 45/1/1 48/1/1
f 50/1/1 48/1/1 47/1/1
f 51/1/1 48/1/1 50/1/1
f 54/5/1 53/5/1 52/5/1
f 55/5/1 53/5/1 54/5/1
f 56/5/1 53/5/1 55/5/1
f 57/3/1 56/3/1 55/3/1
f 58/3/1 56/3/1 57/3/1
f 61/5/1 60/5/1 59/5/1
f 62/5/1 60/5/1 61/5/1
f 65/1/1 64/1/1 63/1/1
f 66/1/1 64/1/1 65/1/1
f 67/1/1 64/1/1 66/1/1
f 68/1/1 64/1/1 67/1/1
f 69/1/1 67/1/1 66/1/1
f 70/1/1 67/1/1 69/1/1
f 71/1/2 72/1/2 73/1/2
f 73/1/2 72/1/2 74/1/2
f 74/1/2 72/1/2 75/1/2
f 75/1/2 72/1/2 76/1/2
f 74/1/2 75/1/2 77/1/2
f 77/1/2 75/1/2 78/1/2
f 79/5/2 80/5/2 81/5/2
f 81/5/2 80/5/2 82/5/2
f 83/5/2 84/5/2 85/5/2
f 85/5/2 84/5/2 86/5/2
f 86/5/2 84/5/2 87/5/2
f 86/3/2 87/3/2 88/3/2
f 88/3/2 87/3/2 89/3/2
f 90/1/2 91/1/2 94/1/2
f 94/1/2 91/1/2 95/1/2
f 92/1/2 93/1/2 96/1/2
f 96/1/2 93/1/2 97/1/2
f 95/1/2 96/1/2 98/1/2
f 98/1/2 96/1/2 99/1/2
f 100/1/2 101/1/2 102/1/2
f 102/1/2 101/1/2 103/1/2
f 104/2/2 105/2/2 108/2/2
f 108/2/2 105/2/2 109/2/2
f 109/2/2 105/2/2 110/2/2
f 110/2/2 105/2/2 111/2/2
f 106/2/2 107/2/2 112/2/2
f 106/2/2 112/2/2 116/2/2
f 114/2/2 115/2/2 116/2/2
f 113/2/2 114/2/2 116/2/2
f 112/2/2 113/2/2 116/2/2
f 116/2/2 115/2/2 117/2/2
f 116/4/2 117/4/2 118/4/2
f 118/4/2 117/4/2 119/4/2
f 116/4/2 118/4/2 120/4/2
f 119/4/2 117/4/2 121/4/2
f 116/4/2 120/4/2 122/4/2
f 120/4/2 121/4/2 122/4/2
f 121/4/2 117/4/2 123/4/2
f 122/4/2 121/4/2 123/4/2
f 124/2/2 125/2/2 126/2/2
f 124/2/2 126/2/2 129/2/2
f 126/4/2 127/4/2 130/4/2
f 129/2/2 126/2/2 130/2/2
f 127/5/2 128/5/2 131/5/2
f 130/4/2 127/4/2 131/4/2
f 131/5/2 128/5/2 132/5/2
f 133/3/2 134/3/2 135/3/2
f 135/3/2 134/3/2 136/3/2
f 133/3/2 135/3/2 137/3/2
f 135/6/2 136/6/2 137/6/2
f 136/3/2 134/3/2 138/3/2
f 137/6/2 136/6/2 138/6/2
f 133/3/2 137/3/2 139/3/2
f 137/3/2 138/3/2 139/3/2
f 138/3/2 134/3/2 140/3/2
f 139/3/2 138/3/2 140/3/2
f 143/5/3 142/5/3 141/5/3
f 144/5/3 142/5/3 143/5/3
f 147/3/3 146/3/3 145/3/3
f 148/3/3 146/3/3 147/3/3
f 152/4/3 151/4/3 150/4/3
f 153/4/3 151/4/3 152/4/3
f 154/4/3 151/4/3 153/4/3
f 157/4/3 156/4/3 155/4/3
f 158/4/3 156/4/3 157/4/3
f 159/4/3 152/4/3 150/4/3
f 161/4/3 151/4/3 154/4/3
f 162/2/3 150/2/3 149/2/3
f 163/4/3 161/4/3 160/4/3
f 163/2/3 150/2/3 162/2/3
f 163/4/3 160/4/3 159/4/3
f 163/4/3 159/4/3 150/4/3
f 164/4/3 151/4/3 161/4/3
f 164/4/3 161/4/3 163/4/3
f 167/3/3 166/3/3 165/3/3
f 168/3/3 166/3/3 167/3/3
f 171/1/3 170/1/3 169/1/3
f 172/1/3 170/1/3 171/1/3
f 175/1/3 174/1/3 173/1/3
f 176/1/3 174/1/3 175/1/3
f 179/3/3 178/3/3 177/3/3
f 180/3/3 178/3/3 179/3/3
f 183/2/3 182/2/3 181/2/3
f 184/2/3 182/2/3 183/2/3
f 185/2/3 183/2/3 181/2/3
f 187/2/3 185/2/3 181/2/3
f 187/2/3 186/2/3 185/2/3
f 188/2/3 186/2/3 187/2/3
f 191/1/3 190/1/3 189/1/3
f 192/1/3 190/1/3 191/1/3
f 194/1/3 193/1/3 192/1/3
f 195/1/3 193/1/3 194/1/3
f 199/1/3 197/1/3 196/1/3
f 200/1/3 197/1/3 199/1/3
f 201/1/3 199/1/3 198/1/3
f 202/1/3 199/1/3 201/1/3
f 203/5/4 204/5/4 205/5/4
f 205/5/4 204/5/4 206/5/4
f 207/3/4 208/3/4 211/3/4
f 211/3/4 208/3/4 212/3/4
f 209/1/4 210/1/4 213/1/4
f 213/1/4 210/1/4 214/1/4
f 214/1/4 215/1/4 216/1/4
f 216/1/4 215/1/4 217/1/4
f 218/1/4 219/1/4 221/1/4
f 221/1/4 219/1/4 222/1/4
f 220/1/4 221/1/4 223/1/4
f 223/1/4 221/1/4 224/1/4
f 225/3/4 226/3/4 227/3/4
f 227/3/4 226/3/4 228/3/4
f 229/2/4 230/2/4 231/2/4
f 231/2/4 230/2/4 232/2/4
f 233/1/4 234/1/4 235/1/4
f 235/1/4 234/1/4 236/1/4
f 237/1/4 238/1/4 239/1/4
f 239/1/4 238/1/4 240/1/4
f 241/2/4 242/2/4 243/2/4
f 243/2/4 242/2/4 244/2/4
f 245/2/4 246/2/4 248/2/4
f 246/4/4 247/4/4 249/4/4
f 248/2/4 246/2/4 249/2/4
f 249/4/4 247/4/4 250/4/4
f 251/5/4 252/5/4 253/5/4
f 253/5/4 252/5/4 254/5/4
f 254/5/4 252/5/4 255/5/4
f 255/5/4 252/5/4 256/5/4
f 257/2/4 258/2/4 259/2/4
f 259/2/4 258/2/4 260/2/4
f 266/1/5 262/1/5 261/1/5
f 267/1/5 264/1/5 263/1/5
f 269/1/5 266/1/5 265/1/5
f 270/1/5 262/1/5 266/1/5
f 270/1/5 266/1/5 269/1/5
f 271/1/5 268/1/5 267/1/5
f 271/1/5 267/1/5 263/1/5
f 272/1/5 268/1/5 271/1/5
f 273/1/5 262/1/5 270/1/5
f 274/1/5 262/1/5 273/1/5
f 275/1/5 271/1/5 263/1/5
f 276/1/5 271/1/5 275/1/5
f 279/2/5 278/2/5 277/2/5
f 280/2/5 278/2/5 279/2/5
f 281/2/5 278/2/5 280/2/5
f 282/2/5 278/2/5 281/2/5
f 283/2/5 279/2/5 277/2/5
f 284/2/5 281/2/5 280/2/5
f 285/2/5 281/2/5 284/2/5
f 286/2/5 278/2/5 282/2/5
f 287/2/5 285/2/5 284/2/5
f 287/2/5 286/2/5 285/2/5
f 287/2/5 283/2/5 277/2/5
f 287/2/5 284/2/5 283/2/5
f 288/2/5 286/2/5 287/2/5
f 289/2/5 278/2/5 286/2/5
f 289/2/5 286/2/5 288/2/5
f 290/2/5 278/2/5 289/2/5
f 291/2/5 289/2/5 288/2/5
f 292/2/5 289/2/5 291/2/5
f 295/2/5 294/2/5 293/2/5
f 296/2/5 294/2/5 295/2/5
f 301/4/5 298/4/5 297/4/5
f 302/4/5 298/4/5 301/4/5
f 303/4/5 300/4/5 299/4/5
f 304/4/5 300/4/5 303/4/5
f 305/5/5 302/5/5 301/5/5
f 306/5/5 302/5/5 305/5/5
f 307/5/5 304/5/5 303/5/5
f 308/5/5 304/5/5 307/5/5
f 311/5/5 310/5/5 309/5/5
f 312/5/5 310/5/5 311/5/5
f 317/3/5 314/3/5 313/3/5
f 318/3/5 314/3/5 317/3/5
f 319/3/5 316/3/5 315/3/5
f 320/3/5 316/3/5 319/3/5
f 323/3/5 322/3/5 321/3/5
f 324/3/5 322/3/5 323/3/5
f 325/1/6 326/1/6 330/1/6
f 330/1/6 326/1/6 331/1/6
f 327/1/6 328/1/6 332/1/6
f 332/1/6 328/1/6 333/1/6
f 329/1/6 330/1/6 335/1/6
f 335/1/6 330/1/6 336/1/6
f 333/1/6 334/1/6 339/1/6
f 339/1/6 334/1/6 340/1/6
f 336/1/6 337/1/6 341/1/6
f 341/1/6 337/1/6 342/1/6
f 338/1/6 339/1/6 343/1/6
f 343/1/6 339/1/6 344/1/6
f 345/2/6 346/2/6 347/2/6
f 347/2/6 346/2/6 348/2/6
f 349/2/6 350/2/6 353/2/6
f 353/2/6 350/2/6 354/2/6
f 351/2/6 352/2/6 355/2/6
f 355/2/6 352/2/6 356/2/6
f 353/4/6 354/4/6 357/4/6
f 357/4/6 354/4/6 358/4/6
f 355/4/6 356/4/6 359/4/6
f 359/4/6 356/4/6 360/4/6
f 357/5/6 358/5/6 361/5/6
f 359/5/6 360/5/6 362/5/6
f 357/5/6 361/5/6 363/5/6
f 361/5/6 362/5/6 363/5/6
f 362/5/6 360/5/6 364/5/6
f 363/5/6 362/5/6 364/5/6
f 365/5/6 366/5/6 367/5/6
f 367/5/6 366/5/6 368/5/6
f 369/5/6 370/5/6 371/5/6
f 371/5/6 370/5/6 372/5/6
f 373/3/6 374/3/6 375/3/6
f 375/3/6 374/3/6 376/3/6
f 377/3/6 378/3/6 381/3/6
f 381/3/6 378/3/6 382/3/6
f 379/3/6 380/3/6 383/3/6
f 383/3/6 380/3/6 384/3/6
f 385/4/6 386/4/6 387/4/6
f 387/4/6 386/4/6 388/4/6
