# MagicaVoxel @ Ephtracy

# group
o 

# material
mtllib door.mtl
usemtl palette

# normals
vn -1 0 0
vn 1 0 0
vn 0 0 1
vn 0 0 -1
vn 0 -1 0
vn 0 1 0

# texcoords
vt 0.908203 0.5
vt 0.943359 0.5
vt 0.970703 0.5

# verts
v -1.2 0.2 0.1
v -1.2 0.2 0
v -1.2 0.2 -0.1
v -1.2 0.2 -0.2
v -1.2 0.3 0.1
v -1.2 0.3 0
v -1.2 0.3 -0.1
v -1.2 0.3 -0.2
v -1.2 0.5 0.2
v -1.2 0.5 0.1
v -1.2 0.5 -0.2
v -1.2 0.5 -0.3
v -1.2 1 0.2
v -1.2 1 0.1
v -1.2 1 -0.2
v -1.2 1 -0.3
v -1.2 3 0.2
v -1.2 3 0.1
v -1.2 3 -0.2
v -1.2 3 -0.3
v -1.2 3.5 0.2
v -1.2 3.5 0.1
v -1.2 3.5 -0.2
v -1.2 3.5 -0.3
v -1.2 3.7 0.1
v -1.2 3.7 -0.2
v -1.2 3.8 0.1
v -1.2 3.8 -0.2
v -1 0.5 0.2
v -1 0.5 0.1
v -1 0.5 -0.2
v -1 0.5 -0.3
v -1 0.6 0.2
v -1 0.6 0.1
v -1 0.6 -0.2
v -1 0.6 -0.3
v -1 0.9 0.2
v -1 0.9 0.1
v -1 0.9 -0.2
v -1 0.9 -0.3
v -1 1 0.2
v -1 1 0.1
v -1 1 -0.2
v -1 1 -0.3
v -1 3 0.2
v -1 3 0.1
v -1 3 -0.2
v -1 3 -0.3
v -1 3.1 0.2
v -1 3.1 0.1
v -1 3.1 -0.2
v -1 3.1 -0.3
v -1 3.4 0.2
v -1 3.4 0.1
v -1 3.4 -0.2
v -1 3.4 -0.3
v -1 3.5 0.2
v -1 3.5 0.1
v -1 3.5 -0.2
v -1 3.5 -0.3
v -0.8 0.6 0.2
v -0.8 0.6 0.1
v -0.8 0.6 -0.2
v -0.8 0.6 -0.3
v -0.8 0.7 0.2
v -0.8 0.7 0.1
v -0.8 0.7 -0.2
v -0.8 0.7 -0.3
v -0.8 0.8 0.2
v -0.8 0.8 0.1
v -0.8 0.8 -0.2
v -0.8 0.8 -0.3
v -0.8 0.9 0.2
v -0.8 0.9 0.1
v -0.8 0.9 -0.2
v -0.8 0.9 -0.3
v -0.8 3.1 0.2
v -0.8 3.1 0.1
v -0.8 3.1 -0.2
v -0.8 3.1 -0.3
v -0.8 3.2 0.2
v -0.8 3.2 0.1
v -0.8 3.2 -0.2
v -0.8 3.2 -0.3
v -0.8 3.3 0.2
v -0.8 3.3 0.1
v -0.8 3.3 -0.2
v -0.8 3.3 -0.3
v -0.8 3.4 0.2
v -0.8 3.4 0.1
v -0.8 3.4 -0.2
v -0.8 3.4 -0.3
v -0.7 0.7 0.2
v -0.7 0.7 0.1
v -0.7 0.7 -0.2
v -0.7 0.7 -0.3
v -0.7 0.8 0.2
v -0.7 0.8 0.1
v -0.7 0.8 -0.2
v -0.7 0.8 -0.3
v -0.7 3.2 0.2
v -0.7 3.2 0.1
v -0.7 3.2 -0.2
v -0.7 3.2 -0.3
v -0.7 3.3 0.2
v -0.7 3.3 0.1
v -0.7 3.3 -0.2
v -0.7 3.3 -0.3
v 1.2 0.2 0.1
v 1.2 0.2 -0.2
v 1.2 3.8 0.1
v 1.2 3.8 -0.2
v -1.2 0.5 0.2
v -1.2 1 0.2
v -1.2 3 0.2
v -1.2 3.5 0.2
v -1 0.5 0.2
v -1 0.6 0.2
v -1 0.9 0.2
v -1 1 0.2
v -1 3 0.2
v -1 3.1 0.2
v -1 3.4 0.2
v -1 3.5 0.2
v -0.8 0.6 0.2
v -0.8 0.7 0.2
v -0.8 0.8 0.2
v -0.8 0.9 0.2
v -0.8 3.1 0.2
v -0.8 3.2 0.2
v -0.8 3.3 0.2
v -0.8 3.4 0.2
v -0.7 0.7 0.2
v -0.7 0.8 0.2
v -0.7 3.2 0.2
v -0.7 3.3 0.2
v -1.2 0.2 0.1
v -1.2 0.3 0.1
v -1.2 0.5 0.1
v -1.2 1 0.1
v -1.2 3 0.1
v -1.2 3.5 0.1
v -1.2 3.7 0.1
v -1.2 3.8 0.1
v -1 0.5 0.1
v -1 0.6 0.1
v -1 0.9 0.1
v -1 1 0.1
v -1 3 0.1
v -1 3.1 0.1
v -1 3.4 0.1
v -1 3.5 0.1
v -0.8 0.6 0.1
v -0.8 0.7 0.1
v -0.8 0.8 0.1
v -0.8 0.9 0.1
v -0.8 3.1 0.1
v -0.8 3.2 0.1
v -0.8 3.3 0.1
v -0.8 3.4 0.1
v -0.7 0.7 0.1
v -0.7 0.8 0.1
v -0.7 3.2 0.1
v -0.7 3.3 0.1
v 1 0.3 0.1
v 1 3.7 0.1
v 1.2 0.2 0.1
v 1.2 3.8 0.1
v -1.2 0.2 -0.2
v -1.2 0.3 -0.2
v -1.2 0.5 -0.2
v -1.2 1 -0.2
v -1.2 3 -0.2
v -1.2 3.5 -0.2
v -1.2 3.7 -0.2
v -1.2 3.8 -0.2
v -1 0.5 -0.2
v -1 0.6 -0.2
v -1 0.9 -0.2
v -1 1 -0.2
v -1 3 -0.2
v -1 3.1 -0.2
v -1 3.4 -0.2
v -1 3.5 -0.2
v -0.8 0.6 -0.2
v -0.8 0.7 -0.2
v -0.8 0.8 -0.2
v -0.8 0.9 -0.2
v -0.8 3.1 -0.2
v -0.8 3.2 -0.2
v -0.8 3.3 -0.2
v -0.8 3.4 -0.2
v -0.7 0.7 -0.2
v -0.7 0.8 -0.2
v -0.7 3.2 -0.2
v -0.7 3.3 -0.2
v 1 0.3 -0.2
v 1 3.7 -0.2
v 1.2 0.2 -0.2
v 1.2 3.8 -0.2
v -1.2 0.5 -0.3
v -1.2 1 -0.3
v -1.2 3 -0.3
v -1.2 3.5 -0.3
v -1 0.5 -0.3
v -1 0.6 -0.3
v -1 0.9 -0.3
v -1 1 -0.3
v -1 3 -0.3
v -1 3.1 -0.3
v -1 3.4 -0.3
v -1 3.5 -0.3
v -0.8 0.6 -0.3
v -0.8 0.7 -0.3
v -0.8 0.8 -0.3
v -0.8 0.9 -0.3
v -0.8 3.1 -0.3
v -0.8 3.2 -0.3
v -0.8 3.3 -0.3
v -0.8 3.4 -0.3
v -0.7 0.7 -0.3
v -0.7 0.8 -0.3
v -0.7 3.2 -0.3
v -0.7 3.3 -0.3
v -1.2 0.2 0.1
v 1.2 0.2 0.1
v -1.2 0.2 0
v 1.1 0.2 0
v -1.2 0.2 -0.1
v 1.1 0.2 -0.1
v -1.2 0.2 -0.2
v 1.2 0.2 -0.2
v -1.2 0.5 0.2
v -1 0.5 0.2
v -1.2 0.5 0.1
v -1 0.5 0.1
v -1.2 0.5 -0.2
v -1 0.5 -0.2
v -1.2 0.5 -0.3
v -1 0.5 -0.3
v -1 0.6 0.2
v -0.8 0.6 0.2
v -1 0.6 0.1
v -0.8 0.6 0.1
v -1 0.6 -0.2
v -0.8 0.6 -0.2
v -1 0.6 -0.3
v -0.8 0.6 -0.3
v -0.8 0.7 0.2
v -0.7 0.7 0.2
v -0.8 0.7 0.1
v -0.7 0.7 0.1
v -0.8 0.7 -0.2
v -0.7 0.7 -0.2
v -0.8 0.7 -0.3
v -0.7 0.7 -0.3
v -1.2 3 0.2
v -1 3 0.2
v -1.2 3 0.1
v -1 3 0.1
v -1.2 3 -0.2
v -1 3 -0.2
v -1.2 3 -0.3
v -1 3 -0.3
v -1 3.1 0.2
v -0.8 3.1 0.2
v -1 3.1 0.1
v -0.8 3.1 0.1
v -1 3.1 -0.2
v -0.8 3.1 -0.2
v -1 3.1 -0.3
v -0.8 3.1 -0.3
v -0.8 3.2 0.2
v -0.7 3.2 0.2
v -0.8 3.2 0.1
v -0.7 3.2 0.1
v -0.8 3.2 -0.2
v -0.7 3.2 -0.2
v -0.8 3.2 -0.3
v -0.7 3.2 -0.3
v -0.8 0.8 0.2
v -0.7 0.8 0.2
v -0.8 0.8 0.1
v -0.7 0.8 0.1
v -0.8 0.8 -0.2
v -0.7 0.8 -0.2
v -0.8 0.8 -0.3
v -0.7 0.8 -0.3
v -1 0.9 0.2
v -0.8 0.9 0.2
v -1 0.9 0.1
v -0.8 0.9 0.1
v -1 0.9 -0.2
v -0.8 0.9 -0.2
v -1 0.9 -0.3
v -0.8 0.9 -0.3
v -1.2 1 0.2
v -1 1 0.2
v -1.2 1 0.1
v -1 1 0.1
v -1.2 1 -0.2
v -1 1 -0.2
v -1.2 1 -0.3
v -1 1 -0.3
v -0.8 3.3 0.2
v -0.7 3.3 0.2
v -0.8 3.3 0.1
v -0.7 3.3 0.1
v -0.8 3.3 -0.2
v -0.7 3.3 -0.2
v -0.8 3.3 -0.3
v -0.7 3.3 -0.3
v -1 3.4 0.2
v -0.8 3.4 0.2
v -1 3.4 0.1
v -0.8 3.4 0.1
v -1 3.4 -0.2
v -0.8 3.4 -0.2
v -1 3.4 -0.3
v -0.8 3.4 -0.3
v -1.2 3.5 0.2
v -1 3.5 0.2
v -1.2 3.5 0.1
v -1 3.5 0.1
v -1.2 3.5 -0.2
v -1 3.5 -0.2
v -1.2 3.5 -0.3
v -1 3.5 -0.3
v -1.2 3.8 0.1
v 1.2 3.8 0.1
v -1.2 3.8 -0.2
v 1.2 3.8 -0.2

# faces
f 5/1/1 2/1/1 1/1/1
f 6/3/1 3/3/1 2/3/1
f 6/1/1 2/1/1 5/1/1
f 7/1/1 4/1/1 3/1/1
f 7/3/1 3/3/1 6/3/1
f 8/1/1 4/1/1 7/1/1
f 10/3/1 6/3/1 5/3/1
f 10/3/1 7/3/1 6/3/1
f 10/3/1 8/3/1 7/3/1
f 11/3/1 8/3/1 10/3/1
f 13/2/1 11/2/1 10/2/1
f 13/2/1 12/2/1 11/2/1
f 13/2/1 10/2/1 9/2/1
f 14/2/1 12/2/1 13/2/1
f 15/2/1 12/2/1 14/2/1
f 16/2/1 12/2/1 15/2/1
f 18/3/1 15/3/1 14/3/1
f 19/3/1 15/3/1 18/3/1
f 21/2/1 18/2/1 17/2/1
f 21/2/1 20/2/1 19/2/1
f 21/2/1 19/2/1 18/2/1
f 22/2/1 20/2/1 21/2/1
f 23/2/1 20/2/1 22/2/1
f 24/2/1 20/2/1 23/2/1
f 25/3/1 23/3/1 22/3/1
f 26/3/1 23/3/1 25/3/1
f 27/1/1 26/1/1 25/1/1
f 28/1/1 26/1/1 27/1/1
f 29/2/2 30/2/2 33/2/2
f 33/2/2 30/2/2 34/2/2
f 31/2/2 32/2/2 35/2/2
f 35/2/2 32/2/2 36/2/2
f 37/2/2 38/2/2 41/2/2
f 41/2/2 38/2/2 42/2/2
f 39/2/2 40/2/2 43/2/2
f 43/2/2 40/2/2 44/2/2
f 45/2/2 46/2/2 49/2/2
f 49/2/2 46/2/2 50/2/2
f 47/2/2 48/2/2 51/2/2
f 51/2/2 48/2/2 52/2/2
f 53/2/2 54/2/2 57/2/2
f 57/2/2 54/2/2 58/2/2
f 55/2/2 56/2/2 59/2/2
f 59/2/2 56/2/2 60/2/2
f 61/2/2 62/2/2 65/2/2
f 65/2/2 62/2/2 66/2/2
f 63/2/2 64/2/2 67/2/2
f 67/2/2 64/2/2 68/2/2
f 69/2/2 70/2/2 73/2/2
f 73/2/2 70/2/2 74/2/2
f 71/2/2 72/2/2 75/2/2
f 75/2/2 72/2/2 76/2/2
f 77/2/2 78/2/2 81/2/2
f 81/2/2 78/2/2 82/2/2
f 79/2/2 80/2/2 83/2/2
f 83/2/2 80/2/2 84/2/2
f 85/2/2 86/2/2 89/2/2
f 89/2/2 86/2/2 90/2/2
f 87/2/2 88/2/2 91/2/2
f 91/2/2 88/2/2 92/2/2
f 93/2/2 94/2/2 97/2/2
f 97/2/2 94/2/2 98/2/2
f 95/2/2 96/2/2 99/2/2
f 99/2/2 96/2/2 100/2/2
f 101/2/2 102/2/2 105/2/2
f 105/2/2 102/2/2 106/2/2
f 103/2/2 104/2/2 107/2/2
f 107/2/2 104/2/2 108/2/2
f 109/1/2 110/1/2 111/1/2
f 111/1/2 110/1/2 112/1/2
f 117/2/3 114/2/3 113/2/3
f 118/2/3 114/2/3 117/2/3
f 119/2/3 114/2/3 118/2/3
f 120/2/3 114/2/3 119/2/3
f 121/2/3 116/2/3 115/2/3
f 122/2/3 116/2/3 121/2/3
f 123/2/3 116/2/3 122/2/3
f 124/2/3 116/2/3 123/2/3
f 125/2/3 119/2/3 118/2/3
f 126/2/3 119/2/3 125/2/3
f 127/2/3 119/2/3 126/2/3
f 128/2/3 119/2/3 127/2/3
f 129/2/3 123/2/3 122/2/3
f 130/2/3 123/2/3 129/2/3
f 131/2/3 123/2/3 130/2/3
f 132/2/3 123/2/3 131/2/3
f 133/2/3 127/2/3 126/2/3
f 134/2/3 127/2/3 133/2/3
f 135/2/3 131/2/3 130/2/3
f 136/2/3 131/2/3 135/2/3
f 145/3/3 139/3/3 138/3/3
f 148/3/3 141/3/3 140/3/3
f 149/3/3 141/3/3 148/3/3
f 152/3/3 143/3/3 142/3/3
f 153/3/3 146/3/3 145/3/3
f 156/3/3 150/3/3 149/3/3
f 156/3/3 148/3/3 147/3/3
f 156/3/3 149/3/3 148/3/3
f 157/3/3 150/3/3 156/3/3
f 160/3/3 152/3/3 151/3/3
f 161/3/3 154/3/3 153/3/3
f 162/3/3 158/3/3 157/3/3
f 162/3/3 156/3/3 155/3/3
f 162/3/3 157/3/3 156/3/3
f 163/3/3 158/3/3 162/3/3
f 164/3/3 160/3/3 159/3/3
f 165/1/3 138/1/3 137/1/3
f 165/3/3 164/3/3 163/3/3
f 165/3/3 161/3/3 153/3/3
f 165/3/3 163/3/3 162/3/3
f 165/3/3 162/3/3 161/3/3
f 165/3/3 145/3/3 138/3/3
f 165/3/3 153/3/3 145/3/3
f 166/3/3 160/3/3 164/3/3
f 166/3/3 164/3/3 165/3/3
f 166/1/3 144/1/3 143/1/3
f 166/3/3 152/3/3 160/3/3
f 166/3/3 143/3/3 152/3/3
f 167/1/3 165/1/3 137/1/3
f 167/1/3 166/1/3 165/1/3
f 168/1/3 144/1/3 166/1/3
f 168/1/3 166/1/3 167/1/3
f 170/3/4 171/3/4 177/3/4
f 172/3/4 173/3/4 180/3/4
f 180/3/4 173/3/4 181/3/4
f 174/3/4 175/3/4 184/3/4
f 177/3/4 178/3/4 185/3/4
f 181/3/4 182/3/4 188/3/4
f 179/3/4 180/3/4 188/3/4
f 180/3/4 181/3/4 188/3/4
f 188/3/4 182/3/4 189/3/4
f 183/3/4 184/3/4 192/3/4
f 185/3/4 186/3/4 193/3/4
f 189/3/4 190/3/4 194/3/4
f 187/3/4 188/3/4 194/3/4
f 188/3/4 189/3/4 194/3/4
f 194/3/4 190/3/4 195/3/4
f 191/3/4 192/3/4 196/3/4
f 169/1/4 170/1/4 197/1/4
f 195/3/4 196/3/4 197/3/4
f 185/3/4 193/3/4 197/3/4
f 194/3/4 195/3/4 197/3/4
f 193/3/4 194/3/4 197/3/4
f 170/3/4 177/3/4 197/3/4
f 177/3/4 185/3/4 197/3/4
f 196/3/4 192/3/4 198/3/4
f 197/3/4 196/3/4 198/3/4
f 175/1/4 176/1/4 198/1/4
f 192/3/4 184/3/4 198/3/4
f 184/3/4 175/3/4 198/3/4
f 169/1/4 197/1/4 199/1/4
f 197/1/4 198/1/4 199/1/4
f 198/1/4 176/1/4 200/1/4
f 199/1/4 198/1/4 200/1/4
f 201/2/4 202/2/4 205/2/4
f 205/2/4 202/2/4 206/2/4
f 206/2/4 202/2/4 207/2/4
f 207/2/4 202/2/4 208/2/4
f 203/2/4 204/2/4 209/2/4
f 209/2/4 204/2/4 210/2/4
f 210/2/4 204/2/4 211/2/4
f 211/2/4 204/2/4 212/2/4
f 206/2/4 207/2/4 213/2/4
f 213/2/4 207/2/4 214/2/4
f 214/2/4 207/2/4 215/2/4
f 215/2/4 207/2/4 216/2/4
f 210/2/4 211/2/4 217/2/4
f 217/2/4 211/2/4 218/2/4
f 218/2/4 211/2/4 219/2/4
f 219/2/4 211/2/4 220/2/4
f 214/2/4 215/2/4 221/2/4
f 221/2/4 215/2/4 222/2/4
f 218/2/4 219/2/4 223/2/4
f 223/2/4 219/2/4 224/2/4
f 227/1/5 226/1/5 225/1/5
f 228/1/5 226/1/5 227/1/5
f 229/3/5 228/3/5 227/3/5
f 230/1/5 226/1/5 228/1/5
f 230/3/5 228/3/5 229/3/5
f 231/1/5 230/1/5 229/1/5
f 232/1/5 226/1/5 230/1/5
f 232/1/5 230/1/5 231/1/5
f 235/2/5 234/2/5 233/2/5
f 236/2/5 234/2/5 235/2/5
f 239/2/5 238/2/5 237/2/5
f 240/2/5 238/2/5 239/2/5
f 243/2/5 242/2/5 241/2/5
f 244/2/5 242/2/5 243/2/5
f 247/2/5 246/2/5 245/2/5
f 248/2/5 246/2/5 247/2/5
f 251/2/5 250/2/5 249/2/5
f 252/2/5 250/2/5 251/2/5
f 255/2/5 254/2/5 253/2/5
f 256/2/5 254/2/5 255/2/5
f 259/2/5 258/2/5 257/2/5
f 260/2/5 258/2/5 259/2/5
f 263/2/5 262/2/5 261/2/5
f 264/2/5 262/2/5 263/2/5
f 267/2/5 266/2/5 265/2/5
f 268/2/5 266/2/5 267/2/5
f 271/2/5 270/2/5 269/2/5
f 272/2/5 270/2/5 271/2/5
f 275/2/5 274/2/5 273/2/5
f 276/2/5 274/2/5 275/2/5
f 279/2/5 278/2/5 277/2/5
f 280/2/5 278/2/5 279/2/5
f 281/2/6 282/2/6 283/2/6
f 283/2/6 282/2/6 284/2/6
f 285/2/6 286/2/6 287/2/6
f 287/2/6 286/2/6 288/2/6
f 289/2/6 290/2/6 291/2/6
f 291/2/6 290/2/6 292/2/6
f 293/2/6 294/2/6 295/2/6
f 295/2/6 294/2/6 296/2/6
f 297/2/6 298/2/6 299/2/6
f 299/2/6 298/2/6 300/2/6
f 301/2/6 302/2/6 303/2/6
f 303/2/6 302/2/6 304/2/6
f 305/2/6 306/2/6 307/2/6
f 307/2/6 306/2/6 308/2/6
f 309/2/6 310/2/6 311/2/6
f 311/2/6 310/2/6 312/2/6
f 313/2/6 314/2/6 315/2/6
f 315/2/6 314/2/6 316/2/6
f 317/2/6 318/2/6 319/2/6
f 319/2/6 318/2/6 320/2/6
f 321/2/6 322/2/6 323/2/6
f 323/2/6 322/2/6 324/2/6
f 325/2/6 326/2/6 327/2/6
f 327/2/6 326/2/6 328/2/6
f 329/1/6 330/1/6 331/1/6
f 331/1/6 330/1/6 332/1/6
