# MagicaVoxel @ Ephtracy

# group
o 

# material
mtllib Kosa.mtl
usemtl palette

# normals
vn -1 0 0
vn 1 0 0
vn 0 0 1
vn 0 0 -1
vn 0 -1 0
vn 0 1 0

# texcoords
vt 0.970703 0.5
vt 0.974609 0.5

# verts
v -0.6 2.7 0.1
v -0.6 2.7 -0.1
v -0.6 2.8 0.1
v -0.6 2.8 -0.1
v -0.5 2.8 0.1
v -0.5 2.8 -0.1
v -0.5 2.9 0.1
v -0.5 2.9 -0.1
v -0.3 2.9 0.1
v -0.3 2.9 -0.1
v -0.3 3 0.1
v -0.3 3 -0.1
v -0.1 3 0.1
v -0.1 3 -0.1
v -0.1 3.1 0.1
v -0.1 3.1 -0.1
v 0.2 3.1 0.1
v 0.2 3.1 -0.1
v 0.2 3.2 0.1
v 0.2 3.2 -0.1
v 0.4 2.9 0.1
v 0.4 2.9 -0.1
v 0.4 3 0.1
v 0.4 3 -0.1
v 0.5 0.7 0.1
v 0.5 0.7 -0.1
v 0.5 2.9 0.1
v 0.5 2.9 -0.1
v 0.5 3.2 0.1
v 0.5 3.2 -0.1
v 0.5 3.3 0.1
v 0.5 3.3 -0.1
v -0.3 2.7 0.1
v -0.3 2.7 -0.1
v -0.3 2.8 0.1
v -0.3 2.8 -0.1
v -0.1 2.8 0.1
v -0.1 2.8 -0.1
v -0.1 2.9 0.1
v -0.1 2.9 -0.1
v 0.1 2.9 0.1
v 0.1 2.9 -0.1
v 0.1 3 0.1
v 0.1 3 -0.1
v 0.6 0.7 0.1
v 0.6 0.7 -0.1
v 0.6 3 0.1
v 0.6 3 -0.1
v 0.6 3.1 0.1
v 0.6 3.1 -0.1
v 0.6 3.3 0.1
v 0.6 3.3 -0.1
v 0.7 3 0.1
v 0.7 3 -0.1
v 0.7 3.1 0.1
v 0.7 3.1 -0.1
v -0.6 2.7 0.1
v -0.6 2.8 0.1
v -0.5 2.8 0.1
v -0.5 2.9 0.1
v -0.3 2.7 0.1
v -0.3 2.8 0.1
v -0.3 2.9 0.1
v -0.3 3 0.1
v -0.1 2.8 0.1
v -0.1 2.9 0.1
v -0.1 3 0.1
v -0.1 3.1 0.1
v 0.1 2.9 0.1
v 0.1 3 0.1
v 0.2 3.1 0.1
v 0.2 3.2 0.1
v 0.4 2.9 0.1
v 0.4 3 0.1
v 0.5 0.7 0.1
v 0.5 2.9 0.1
v 0.5 3.2 0.1
v 0.5 3.3 0.1
v 0.6 0.7 0.1
v 0.6 3 0.1
v 0.6 3.1 0.1
v 0.6 3.3 0.1
v 0.7 3 0.1
v 0.7 3.1 0.1
v -0.6 2.7 -0.1
v -0.6 2.8 -0.1
v -0.5 2.8 -0.1
v -0.5 2.9 -0.1
v -0.3 2.7 -0.1
v -0.3 2.8 -0.1
v -0.3 2.9 -0.1
v -0.3 3 -0.1
v -0.1 2.8 -0.1
v -0.1 2.9 -0.1
v -0.1 3 -0.1
v -0.1 3.1 -0.1
v 0.1 2.9 -0.1
v 0.1 3 -0.1
v 0.2 3.1 -0.1
v 0.2 3.2 -0.1
v 0.4 2.9 -0.1
v 0.4 3 -0.1
v 0.5 0.7 -0.1
v 0.5 2.9 -0.1
v 0.5 3.2 -0.1
v 0.5 3.3 -0.1
v 0.6 0.7 -0.1
v 0.6 3 -0.1
v 0.6 3.1 -0.1
v 0.6 3.3 -0.1
v 0.7 3 -0.1
v 0.7 3.1 -0.1
v 0.5 0.7 0.1
v 0.6 0.7 0.1
v 0.5 0.7 -0.1
v 0.6 0.7 -0.1
v -0.6 2.7 0.1
v -0.3 2.7 0.1
v -0.6 2.7 -0.1
v -0.3 2.7 -0.1
v -0.3 2.8 0.1
v -0.1 2.8 0.1
v -0.3 2.8 -0.1
v -0.1 2.8 -0.1
v -0.1 2.9 0.1
v 0.1 2.9 0.1
v 0.4 2.9 0.1
v 0.5 2.9 0.1
v -0.1 2.9 -0.1
v 0.1 2.9 -0.1
v 0.4 2.9 -0.1
v 0.5 2.9 -0.1
v 0.1 3 0.1
v 0.4 3 0.1
v 0.6 3 0.1
v 0.7 3 0.1
v 0.1 3 -0.1
v 0.4 3 -0.1
v 0.6 3 -0.1
v 0.7 3 -0.1
v -0.6 2.8 0.1
v -0.5 2.8 0.1
v -0.6 2.8 -0.1
v -0.5 2.8 -0.1
v -0.5 2.9 0.1
v -0.3 2.9 0.1
v -0.5 2.9 -0.1
v -0.3 2.9 -0.1
v -0.3 3 0.1
v -0.1 3 0.1
v -0.3 3 -0.1
v -0.1 3 -0.1
v -0.1 3.1 0.1
v 0.2 3.1 0.1
v 0.6 3.1 0.1
v 0.7 3.1 0.1
v -0.1 3.1 -0.1
v 0.2 3.1 -0.1
v 0.6 3.1 -0.1
v 0.7 3.1 -0.1
v 0.2 3.2 0.1
v 0.5 3.2 0.1
v 0.2 3.2 -0.1
v 0.5 3.2 -0.1
v 0.5 3.3 0.1
v 0.6 3.3 0.1
v 0.5 3.3 -0.1
v 0.6 3.3 -0.1

# faces
f 3/1/1 2/1/1 1/1/1
f 4/1/1 2/1/1 3/1/1
f 7/1/1 6/1/1 5/1/1
f 8/1/1 6/1/1 7/1/1
f 11/1/1 10/1/1 9/1/1
f 12/1/1 10/1/1 11/1/1
f 15/1/1 14/1/1 13/1/1
f 16/1/1 14/1/1 15/1/1
f 19/1/1 18/1/1 17/1/1
f 20/1/1 18/1/1 19/1/1
f 23/1/1 22/1/1 21/1/1
f 24/1/1 22/1/1 23/1/1
f 27/2/1 26/2/1 25/2/1
f 28/2/1 26/2/1 27/2/1
f 31/2/1 30/2/1 29/2/1
f 32/2/1 30/2/1 31/2/1
f 33/1/2 34/1/2 35/1/2
f 35/1/2 34/1/2 36/1/2
f 37/1/2 38/1/2 39/1/2
f 39/1/2 38/1/2 40/1/2
f 41/1/2 42/1/2 43/1/2
f 43/1/2 42/1/2 44/1/2
f 45/2/2 46/2/2 47/2/2
f 47/2/2 46/2/2 48/2/2
f 49/2/2 50/2/2 51/2/2
f 51/2/2 50/2/2 52/2/2
f 53/1/2 54/1/2 55/1/2
f 55/1/2 54/1/2 56/1/2
f 59/1/3 58/1/3 57/1/3
f 61/1/3 59/1/3 57/1/3
f 61/1/3 60/1/3 59/1/3
f 62/1/3 60/1/3 61/1/3
f 63/1/3 60/1/3 62/1/3
f 65/1/3 64/1/3 63/1/3
f 65/1/3 63/1/3 62/1/3
f 66/1/3 64/1/3 65/1/3
f 67/1/3 64/1/3 66/1/3
f 69/1/3 68/1/3 67/1/3
f 69/1/3 67/1/3 66/1/3
f 70/1/3 68/1/3 69/1/3
f 71/1/3 68/1/3 70/1/3
f 74/1/3 71/1/3 70/1/3
f 74/1/3 72/1/3 71/1/3
f 76/1/3 74/1/3 73/1/3
f 77/1/3 72/1/3 74/1/3
f 77/1/3 74/1/3 76/1/3
f 79/2/3 76/2/3 75/2/3
f 79/2/3 78/2/3 77/2/3
f 79/2/3 77/2/3 76/2/3
f 80/2/3 78/2/3 79/2/3
f 81/2/3 78/2/3 80/2/3
f 82/2/3 78/2/3 81/2/3
f 83/1/3 81/1/3 80/1/3
f 84/1/3 81/1/3 83/1/3
f 85/1/4 86/1/4 87/1/4
f 85/1/4 87/1/4 89/1/4
f 87/1/4 88/1/4 89/1/4
f 89/1/4 88/1/4 90/1/4
f 90/1/4 88/1/4 91/1/4
f 91/1/4 92/1/4 93/1/4
f 90/1/4 91/1/4 93/1/4
f 93/1/4 92/1/4 94/1/4
f 94/1/4 92/1/4 95/1/4
f 95/1/4 96/1/4 97/1/4
f 94/1/4 95/1/4 97/1/4
f 97/1/4 96/1/4 98/1/4
f 98/1/4 96/1/4 99/1/4
f 98/1/4 99/1/4 102/1/4
f 99/1/4 100/1/4 102/1/4
f 101/1/4 102/1/4 104/1/4
f 102/1/4 100/1/4 105/1/4
f 104/1/4 102/1/4 105/1/4
f 103/2/4 104/2/4 107/2/4
f 105/2/4 106/2/4 107/2/4
f 104/2/4 105/2/4 107/2/4
f 107/2/4 106/2/4 108/2/4
f 108/2/4 106/2/4 109/2/4
f 109/2/4 106/2/4 110/2/4
f 108/1/4 109/1/4 111/1/4
f 111/1/4 109/1/4 112/1/4
f 115/2/5 114/2/5 113/2/5
f 116/2/5 114/2/5 115/2/5
f 119/1/5 118/1/5 117/1/5
f 120/1/5 118/1/5 119/1/5
f 123/1/5 122/1/5 121/1/5
f 124/1/5 122/1/5 123/1/5
f 129/1/5 126/1/5 125/1/5
f 130/1/5 126/1/5 129/1/5
f 131/1/5 128/1/5 127/1/5
f 132/1/5 128/1/5 131/1/5
f 137/1/5 134/1/5 133/1/5
f 138/1/5 134/1/5 137/1/5
f 139/1/5 136/1/5 135/1/5
f 140/1/5 136/1/5 139/1/5
f 141/1/6 142/1/6 143/1/6
f 143/1/6 142/1/6 144/1/6
f 145/1/6 146/1/6 147/1/6
f 147/1/6 146/1/6 148/1/6
f 149/1/6 150/1/6 151/1/6
f 151/1/6 150/1/6 152/1/6
f 153/1/6 154/1/6 157/1/6
f 157/1/6 154/1/6 158/1/6
f 155/1/6 156/1/6 159/1/6
f 159/1/6 156/1/6 160/1/6
f 161/1/6 162/1/6 163/1/6
f 163/1/6 162/1/6 164/1/6
f 165/2/6 166/2/6 167/2/6
f 167/2/6 166/2/6 168/2/6
